<svg xmlns:xlink="http://www.w3.org/1999/xlink" version="1.1" class="highcharts-root" style="font-family:&quot;Lucida Grande&quot;, &quot;Lucida Sans Unicode&quot;, Arial, Helvetica, sans-serif;font-size:12px;" xmlns="http://www.w3.org/2000/svg" width="600" height="400" viewBox="0 0 600 400"><desc>Created with Highcharts 8.2.2</desc><defs><clipPath id="highcharts-dnix50k-144-"><rect x="0" y="0" width="580" height="375" fill="none"></rect></clipPath></defs><rect fill="#ffffff" class="highcharts-background" x="0" y="0" width="600" height="400" rx="0" ry="0"></rect><rect fill="none" class="highcharts-plot-background" x="10" y="10" width="580" height="375"></rect><g class="highcharts-pane-group" data-z-index="0"></g><rect fill="none" class="highcharts-plot-border" data-z-index="1" x="10" y="10" width="580" height="375"></rect><g class="highcharts-series-group" data-z-index="3"><g class="highcharts-series highcharts-series-0 highcharts-pie-series" data-z-index="0.1" opacity="1" transform="translate(10,10) scale(1 1)"><path fill="#466eb4" d="M 293.46710677760325 10.000003349734016 A 161.5 161.5 0 0 1 454.66936088126965 161.17105459773006 L 293.5 171.5 A 0 0 0 0 0 293.5 171.5 Z" transform="translate(0,0)" stroke="#ffffff" stroke-width="1" opacity="1" stroke-linejoin="round" class="highcharts-point highcharts-color-0"></path><path fill="#d7642d" d="M 454.6796092402767 161.33222909622202 A 161.5 161.5 0 0 1 380.2145355214431 307.74551122624325 L 293.5 171.5 A 0 0 0 0 0 293.5 171.5 Z" transform="translate(0,0)" stroke="#ffffff" stroke-width="1" opacity="1" stroke-linejoin="round" class="highcharts-point highcharts-color-1"></path><path fill="#e6a532" d="M 380.0782466756603 307.83215762456234 A 161.5 161.5 0 0 1 326.9761269013778 329.4924014871691 L 293.5 171.5 A 0 0 0 0 0 293.5 171.5 Z" transform="translate(0,0)" stroke="#ffffff" stroke-width="1" opacity="1" stroke-linejoin="round" class="highcharts-point highcharts-color-2"></path><path fill="#829bcd" d="M 326.8181177881607 329.52579861229697 A 161.5 161.5 0 0 1 270.45157246632783 331.3468641801429 L 293.5 171.5 A 0 0 0 0 0 293.5 171.5 Z" transform="translate(0,0)" stroke="#ffffff" stroke-width="1" opacity="1" stroke-linejoin="round" class="highcharts-point highcharts-color-3"></path><path fill="#e6aa82" d="M 270.2917371530017 331.32373583302524 A 161.5 161.5 0 0 1 226.73314227458854 318.5524964408108 L 293.5 171.5 A 0 0 0 0 0 293.5 171.5 Z" transform="translate(0,0)" stroke="#ffffff" stroke-width="1" opacity="1" stroke-linejoin="round" class="highcharts-point highcharts-color-4"></path><path fill="#fae6c3" d="M 226.5861231860826 318.4856560679711 A 161.5 161.5 0 0 1 194.5832581461708 299.1625559082338 L 293.5 171.5 A 0 0 0 0 0 293.5 171.5 Z" transform="translate(0,0)" stroke="#ffffff" stroke-width="1" opacity="1" stroke-linejoin="round" class="highcharts-point highcharts-color-5"></path><path fill="#aab9e1" d="M 194.45564506990647 299.06357535159344 A 161.5 161.5 0 0 1 174.5200617701042 280.7063381805753 L 293.5 171.5 A 0 0 0 0 0 293.5 171.5 Z" transform="translate(0,0)" stroke="#ffffff" stroke-width="1" opacity="1" stroke-linejoin="round" class="highcharts-point highcharts-color-6"></path><path fill="#466eb4" d="M 174.41091494008884 280.5873036590109 A 161.5 161.5 0 0 1 158.28685744726093 259.81566158396066 L 293.5 171.5 A 0 0 0 0 0 293.5 171.5 Z" transform="translate(0,0)" stroke="#ffffff" stroke-width="1" opacity="1" stroke-linejoin="round" class="highcharts-point highcharts-color-0"></path><path fill="#d7642d" d="M 158.19860940696188 259.6804043061163 A 161.5 161.5 0 0 1 146.1412046351988 237.5880884020308 L 293.5 171.5 A 0 0 0 0 0 293.5 171.5 Z" transform="translate(0,0)" stroke="#ffffff" stroke-width="1" opacity="1" stroke-linejoin="round" class="highcharts-point highcharts-color-1"></path><path fill="#e6a532" d="M 146.07519023720297 237.44069658718436 A 161.5 161.5 0 0 1 138.1825532330107 215.75766294986036 L 293.5 171.5 A 0 0 0 0 0 293.5 171.5 Z" transform="translate(0,0)" stroke="#ffffff" stroke-width="1" opacity="1" stroke-linejoin="round" class="highcharts-point highcharts-color-2"></path><path fill="#829bcd" d="M 138.13837323615402 215.60232340015 A 161.5 161.5 0 0 1 293.27567974000146 10.000155788245564 L 293.5 171.5 A 0 0 0 0 0 293.5 171.5 Z" transform="translate(0,0)" stroke="#ffffff" stroke-width="1" opacity="1" stroke-linejoin="round" class="highcharts-point highcharts-color-3"></path></g><g class="highcharts-markers highcharts-series-0 highcharts-pie-series" data-z-index="0.1" opacity="1" transform="translate(10,10) scale(1 1)"></g></g><text x="300" text-anchor="middle" class="highcharts-title" data-z-index="4" style="color:#333333;font-size:18px;fill:#333333;" y="24"></text><text x="300" text-anchor="middle" class="highcharts-subtitle" data-z-index="4" style="color:#666666;fill:#666666;" y="24"></text><text x="10" text-anchor="start" class="highcharts-caption" data-z-index="4" style="color:#666666;fill:#666666;" y="397"></text><g class="highcharts-data-labels highcharts-series-0 highcharts-pie-series" data-z-index="6" opacity="1" transform="translate(10,10) scale(1 1)"><path fill="none" class="highcharts-data-label-connector highcharts-color-0" stroke="#466eb4" stroke-width="1" d="M 429.5907707853439 31.902507848799686 C 424.5907707853439 31.902507848799686 412.26892287862745 45.02394314238509 408.16164024305533 49.39775490691356 L 404.0543576074832 53.77156667144203"></path><path fill="none" class="highcharts-data-label-connector highcharts-color-1" stroke="#d7642d" stroke-width="1" d="M 469.12774938207247 258.43918070012313 C 464.12774938207247 258.43918070012313 448.08963194668183 250.26735170481132 442.74359280155164 247.54340870637404 L 437.39755365642145 244.81946570793676"></path><path fill="none" class="highcharts-data-label-connector highcharts-color-2" stroke="#e6a532" stroke-width="1" d="M 391.3224110869783 339 C 386.3224110869783 339 358.8871203065103 332.2071078018081 356.62589424403734 326.6495132956937 L 354.36466818156435 321.09191878957927"></path><path fill="none" class="highcharts-data-label-connector highcharts-color-3" stroke="#829bcd" stroke-width="1" d="M 304.5151603634613 363 C 299.5151603634613 363 298.9497667000554 344.91438822345447 298.7613021455866 338.91734886126005 L 298.57283759111783 332.92030949906564"></path><path fill="none" class="highcharts-data-label-connector highcharts-color-4" stroke="#e6aa82" stroke-width="1" d="M 241.8371395270193 357.22783165826047 C 246.8371395270193 357.22783165826047 244.57185908132766 337.9580638666764 246.26389853672842 332.20158903555216 L 247.95593799212918 326.4451142044279"></path><path fill="none" class="highcharts-data-label-connector highcharts-color-5" stroke="#fae6c3" stroke-width="1" d="M 185.9507022592677 333.22783165826047 C 190.9507022592677 333.22783165826047 203.77777321102974 319.99973744094166 206.88055915185868 314.86429983491485 L 209.9833450926876 309.72886222888803"></path><path fill="none" class="highcharts-data-label-connector highcharts-color-6" stroke="#aab9e1" stroke-width="1" d="M 155.44627255610663 309.22783165826047 C 160.44627255610663 309.22783165826047 175.9283430989373 299.0897938455062 179.9942217237579 294.67746668082015 L 184.06010034857852 290.26513951613407"></path><path fill="none" class="highcharts-data-label-connector highcharts-color-0" stroke="#466eb4" stroke-width="1" d="M 134.42784058659277 285.22783165826047 C 139.42784058659277 285.22783165826047 156.4081053528177 277.8393738087914 161.14903542707185 274.1619314868735 L 165.889965501326 270.4844891649557"></path><path fill="none" class="highcharts-data-label-connector highcharts-color-1" stroke="#d7642d" stroke-width="1" d="M 119.3220870624452 261.22783165826047 C 124.3220870624452 261.22783165826047 141.19895402224537 254.60620550886597 146.4658489840121 251.7322156929974 L 151.73274394577882 248.85822587712886"></path><path fill="none" class="highcharts-data-label-connector highcharts-color-2" stroke="#e6a532" stroke-width="1" d="M 108.52601136696975 236.934038661219 C 113.52601136696975 236.934038661219 130.4426264865235 230.78358071917233 136.08149819304143 228.73342807182343 L 141.72036989955936 226.68327542447452"></path><path fill="none" class="highcharts-data-label-connector highcharts-color-3" stroke="#829bcd" stroke-width="1" d="M 135.72236482836368 56.03899276655176 C 140.72236482836368 56.03899276655176 155.0826647400579 66.89172451695421 159.86943137728935 70.50930176708836 L 164.65619801452078 74.1268790172225"></path><g class="highcharts-label highcharts-data-label highcharts-data-label-color-0" data-z-index="1" transform="translate(435,22)"><text x="5" data-z-index="1" y="16" style="color:#000000;font-size:11px;font-weight:bold;fill:#000000;"><tspan x="5" y="16" class="highcharts-text-outline" fill="#FFFFFF" stroke="#FFFFFF" stroke-width="2px" stroke-linejoin="round" style="">Afghan 24%</tspan><tspan x="5" y="16">Afghan 24%</tspan></text></g><g class="highcharts-label highcharts-data-label highcharts-data-label-color-1" data-z-index="1" transform="translate(474,248)"><text x="5" data-z-index="1" y="16" style="color:#000000;font-size:11px;font-weight:bold;fill:#000000;"><tspan x="5" y="16" class="highcharts-text-outline" fill="#FFFFFF" stroke="#FFFFFF" stroke-width="2px" stroke-linejoin="round" style="">Syrian 17%</tspan><tspan x="5" y="16">Syrian 17%</tspan></text></g><g class="highcharts-label highcharts-data-label highcharts-data-label-color-2" data-z-index="1" transform="translate(396,329)"><text x="5" data-z-index="1" y="16" style="color:#000000;font-size:11px;font-weight:bold;fill:#000000;"><tspan x="5" y="16" class="highcharts-text-outline" fill="#FFFFFF" stroke="#FFFFFF" stroke-width="2px" stroke-linejoin="round" style="">Moroccan 5.7%</tspan><tspan x="5" y="16">Moroccan 5.7%</tspan></text></g><g class="highcharts-label highcharts-data-label highcharts-data-label-color-3" data-z-index="1" transform="translate(310,353)"><text x="5" data-z-index="1" y="16" style="color:#000000;font-size:11px;font-weight:bold;fill:#000000;"><tspan x="5" y="16" class="highcharts-text-outline" fill="#FFFFFF" stroke="#FFFFFF" stroke-width="2px" stroke-linejoin="round" style="">Turkish 5.6%</tspan><tspan x="5" y="16">Turkish 5.6%</tspan></text></g><g class="highcharts-label highcharts-data-label highcharts-data-label-color-4" data-z-index="1" transform="translate(171,347)"><text x="5" data-z-index="1" y="16" style="color:#000000;font-size:11px;font-weight:bold;fill:#000000;"><tspan x="5" y="16" class="highcharts-text-outline" fill="#FFFFFF" stroke="#FFFFFF" stroke-width="2px" stroke-linejoin="round" style="">IraqI 4.5%</tspan><tspan x="5" y="16">IraqI 4.5%</tspan></text></g><g class="highcharts-label highcharts-data-label highcharts-data-label-color-5" data-z-index="1" transform="translate(93,323)"><text x="5" data-z-index="1" y="16" style="color:#000000;font-size:11px;font-weight:bold;fill:#000000;"><tspan x="5" y="16" class="highcharts-text-outline" fill="#FFFFFF" stroke="#FFFFFF" stroke-width="2px" stroke-linejoin="round" style="">Algerian 3.7%</tspan><tspan x="5" y="16">Algerian 3.7%</tspan></text></g><g class="highcharts-label highcharts-data-label highcharts-data-label-color-6" data-z-index="1" transform="translate(60,299)"><text x="5" data-z-index="1" y="16" style="color:#000000;font-size:11px;font-weight:bold;fill:#000000;"><tspan x="5" y="16" class="highcharts-text-outline" fill="#FFFFFF" stroke="#FFFFFF" stroke-width="2px" stroke-linejoin="round" style="">Pakistani 2.7%</tspan><tspan x="5" y="16">Pakistani 2.7%</tspan></text></g><g class="highcharts-label highcharts-data-label highcharts-data-label-color-0" data-z-index="1" transform="translate(29,275)"><text x="5" data-z-index="1" y="16" style="color:#000000;font-size:11px;font-weight:bold;fill:#000000;"><tspan x="5" y="16" class="highcharts-text-outline" fill="#FFFFFF" stroke="#FFFFFF" stroke-width="2px" stroke-linejoin="round" style="">Palestinian 2.6%</tspan><tspan x="5" y="16">Palestinian 2.6%</tspan></text></g><g class="highcharts-label highcharts-data-label highcharts-data-label-color-1" data-z-index="1" transform="translate(36,251)"><text x="5" data-z-index="1" y="16" style="color:#000000;font-size:11px;font-weight:bold;fill:#000000;"><tspan x="5" y="16" class="highcharts-text-outline" fill="#FFFFFF" stroke="#FFFFFF" stroke-width="2px" stroke-linejoin="round" style="">Iranian 2.5%</tspan><tspan x="5" y="16">Iranian 2.5%</tspan></text></g><g class="highcharts-label highcharts-data-label highcharts-data-label-color-2" data-z-index="1" transform="translate(13,227)"><text x="5" data-z-index="1" y="16" style="color:#000000;font-size:11px;font-weight:bold;fill:#000000;"><tspan x="5" y="16" class="highcharts-text-outline" fill="#FFFFFF" stroke="#FFFFFF" stroke-width="2px" stroke-linejoin="round" style="">Somalian 2.3%</tspan><tspan x="5" y="16">Somalian 2.3%</tspan></text></g><g class="highcharts-label highcharts-data-label highcharts-data-label-color-3" data-z-index="1" transform="translate(52,46)"><text x="5" data-z-index="1" y="16" style="color:#000000;font-size:11px;font-weight:bold;fill:#000000;"><tspan x="5" y="16" class="highcharts-text-outline" fill="#FFFFFF" stroke="#FFFFFF" stroke-width="2px" stroke-linejoin="round" style="">Other 29.4%</tspan><tspan x="5" y="16">Other 29.4%</tspan></text></g></g><g class="highcharts-legend" data-z-index="7"><rect fill="none" class="highcharts-legend-box" rx="0" ry="0" x="0" y="0" width="8" height="8" visibility="hidden"></rect><g data-z-index="1"><g></g></g></g><text x="590" class="highcharts-credits" text-anchor="end" data-z-index="8" style="cursor:pointer;color:#999999;font-size:9px;fill:#999999;" y="395">Highcharts.com</text></svg>