<svg xmlns:xlink="http://www.w3.org/1999/xlink" version="1.1" class="highcharts-root" style="font-family:&quot;Lucida Grande&quot;, &quot;Lucida Sans Unicode&quot;, Arial, Helvetica, sans-serif;font-size:12px;" xmlns="http://www.w3.org/2000/svg" width="600" height="400" viewBox="0 0 600 400"><desc>Created with Highcharts 8.2.2</desc><defs><clipPath id="highcharts-dnix50k-163-"><rect x="0" y="0" width="580" height="375" fill="none"></rect></clipPath></defs><rect fill="#ffffff" class="highcharts-background" x="0" y="0" width="600" height="400" rx="0" ry="0"></rect><rect fill="none" class="highcharts-plot-background" x="10" y="10" width="580" height="375"></rect><g class="highcharts-pane-group" data-z-index="0"></g><rect fill="none" class="highcharts-plot-border" data-z-index="1" x="10" y="10" width="580" height="375"></rect><g class="highcharts-series-group" data-z-index="3"><g class="highcharts-series highcharts-series-0 highcharts-pie-series" data-z-index="0.1" opacity="1" transform="translate(10,10) scale(1 1)"><path fill="#466eb4" d="M 289.96659759459396 10.000003401587492 A 164 164 0 0 1 402.00412994912483 293.7959718619101 L 290 174 A 0 0 0 0 0 290 174 Z" transform="translate(0,0)" stroke="#ffffff" stroke-width="1" opacity="1" stroke-linejoin="round" class="highcharts-point highcharts-color-0"></path><path fill="#d7642d" d="M 401.88427799516865 293.9079160752109 A 164 164 0 0 1 239.31428653556696 329.9710179828336 L 290 174 A 0 0 0 0 0 290 174 Z" transform="translate(0,0)" stroke="#ffffff" stroke-width="1" opacity="1" stroke-linejoin="round" class="highcharts-point highcharts-color-1"></path><path fill="#e6a532" d="M 239.1583408864339 329.92025429231427 A 164 164 0 0 1 165.05242409729107 280.22665991189217 L 290 174 A 0 0 0 0 0 290 174 Z" transform="translate(0,0)" stroke="#ffffff" stroke-width="1" opacity="1" stroke-linejoin="round" class="highcharts-point highcharts-color-2"></path><path fill="#829bcd" d="M 164.94625992886637 280.1016592434885 A 164 164 0 0 1 142.94507060949718 246.60060428091646 L 290 174 A 0 0 0 0 0 290 174 Z" transform="translate(0,0)" stroke="#ffffff" stroke-width="1" opacity="1" stroke-linejoin="round" class="highcharts-point highcharts-color-3"></path><path fill="#e6aa82" d="M 142.8725435447749 246.453513075736 A 164 164 0 0 1 289.77220729015625 10.000158199828292 L 290 174 A 0 0 0 0 0 290 174 Z" transform="translate(0,0)" stroke="#ffffff" stroke-width="1" opacity="1" stroke-linejoin="round" class="highcharts-point highcharts-color-4"></path></g><g class="highcharts-markers highcharts-series-0 highcharts-pie-series" data-z-index="0.1" opacity="1" transform="translate(10,10) scale(1 1)"></g></g><text x="300" text-anchor="middle" class="highcharts-title" data-z-index="4" style="color:#333333;font-size:18px;fill:#333333;" y="24"></text><text x="300" text-anchor="middle" class="highcharts-subtitle" data-z-index="4" style="color:#666666;fill:#666666;" y="24"></text><text x="10" text-anchor="start" class="highcharts-caption" data-z-index="4" style="color:#666666;fill:#666666;" y="397"></text><g class="highcharts-data-labels highcharts-series-0 highcharts-pie-series" data-z-index="6" opacity="1" transform="translate(10,10) scale(1 1)"><path fill="none" class="highcharts-data-label-connector highcharts-color-0" stroke="#466eb4" stroke-width="1" d="M 475.495064254549 102.88367430929644 C 470.495064254549 102.88367430929644 453.7480995299001 109.48209628059884 448.1657779550172 111.68157027103297 L 442.58345638013424 113.8810442614671"></path><path fill="none" class="highcharts-data-label-connector highcharts-color-1" stroke="#d7642d" stroke-width="1" d="M 336.95252812343176 363.40957046583645 C 331.95252812343176 363.40957046583645 328.0600255140412 345.83548660818155 326.7625246442443 339.9774586556299 L 325.46502377444745 334.11943070307825"></path><path fill="none" class="highcharts-data-label-connector highcharts-color-2" stroke="#e6a532" stroke-width="1" d="M 176.87992107314736 335.0777716907307 C 181.87992107314736 335.0777716907307 191.91168097357706 320.13241143076596 195.25560094038693 315.1506246774444 L 198.5995209071968 310.16883792412284"></path><path fill="none" class="highcharts-data-label-connector highcharts-color-3" stroke="#829bcd" stroke-width="1" d="M 122.75591292758602 280.3619114628867 C 127.75591292758602 280.3619114628867 142.8094880167791 270.49328050241274 147.82734637984345 267.2037368489214 L 152.84520474290778 263.91419319543"></path><path fill="none" class="highcharts-data-label-connector highcharts-color-4" stroke="#e6aa82" stroke-width="1" d="M 120.29539942784999 71.48953931247544 C 125.29539942784999 71.48953931247544 140.57726958402887 81.00081917008082 145.67122630275514 84.17124578928261 L 150.76518302148142 87.3416724084844"></path><g class="highcharts-label highcharts-data-label highcharts-data-label-color-0" data-z-index="1" transform="translate(480,93)"><text x="5" data-z-index="1" y="16" style="color:#000000;font-size:11px;font-weight:bold;fill:#000000;"><tspan x="5" y="16" class="highcharts-text-outline" fill="#FFFFFF" stroke="#FFFFFF" stroke-width="2px" stroke-linejoin="round" style="">Family 38%</tspan><tspan x="5" y="16">Family 38%</tspan></text></g><g class="highcharts-label highcharts-data-label highcharts-data-label-color-1" data-z-index="1" transform="translate(342,353)"><text x="5" data-z-index="1" y="16" style="color:#000000;font-size:11px;font-weight:bold;fill:#000000;"><tspan x="5" y="16" class="highcharts-text-outline" fill="#FFFFFF" stroke="#FFFFFF" stroke-width="2px" stroke-linejoin="round" style="">Work 17%</tspan><tspan x="5" y="16">Work 17%</tspan></text></g><g class="highcharts-label highcharts-data-label highcharts-data-label-color-2" data-z-index="1" transform="translate(101,325)"><text x="5" data-z-index="1" y="16" style="color:#000000;font-size:11px;font-weight:bold;fill:#000000;"><tspan x="5" y="16" class="highcharts-text-outline" fill="#FFFFFF" stroke="#FFFFFF" stroke-width="2px" stroke-linejoin="round" style="">Asylum 9%</tspan><tspan x="5" y="16">Asylum 9%</tspan></text></g><g class="highcharts-label highcharts-data-label highcharts-data-label-color-3" data-z-index="1" transform="translate(34,270)"><text x="5" data-z-index="1" y="16" style="color:#000000;font-size:11px;font-weight:bold;fill:#000000;"><tspan x="5" y="16" class="highcharts-text-outline" fill="#FFFFFF" stroke="#FFFFFF" stroke-width="2px" stroke-linejoin="round" style="">Education 4%</tspan><tspan x="5" y="16">Education 4%</tspan></text></g><g class="highcharts-label highcharts-data-label highcharts-data-label-color-4" data-z-index="1" transform="translate(47,61)"><text x="5" data-z-index="1" y="16" style="color:#000000;font-size:11px;font-weight:bold;fill:#000000;"><tspan x="5" y="16" class="highcharts-text-outline" fill="#FFFFFF" stroke="#FFFFFF" stroke-width="2px" stroke-linejoin="round" style="">Other 32%</tspan><tspan x="5" y="16">Other 32%</tspan></text></g></g><g class="highcharts-legend" data-z-index="7"><rect fill="none" class="highcharts-legend-box" rx="0" ry="0" x="0" y="0" width="8" height="8" visibility="hidden"></rect><g data-z-index="1"><g></g></g></g><text x="590" class="highcharts-credits" text-anchor="end" data-z-index="8" style="cursor:pointer;color:#999999;font-size:9px;fill:#999999;" y="395">Highcharts.com</text></svg>