<svg xmlns:xlink="http://www.w3.org/1999/xlink" version="1.1" class="highcharts-root" style="font-family:&quot;Lucida Grande&quot;, &quot;Lucida Sans Unicode&quot;, Arial, Helvetica, sans-serif;font-size:12px;" xmlns="http://www.w3.org/2000/svg" width="600" height="400" viewBox="0 0 600 400"><desc>Created with Highcharts 8.2.2</desc><defs><clipPath id="highcharts-dnix50k-153-"><rect x="0" y="0" width="580" height="375" fill="none"></rect></clipPath></defs><rect fill="#ffffff" class="highcharts-background" x="0" y="0" width="600" height="400" rx="0" ry="0"></rect><rect fill="none" class="highcharts-plot-background" x="10" y="10" width="580" height="375"></rect><g class="highcharts-pane-group" data-z-index="0"></g><rect fill="none" class="highcharts-plot-border" data-z-index="1" x="10" y="10" width="580" height="375"></rect><g class="highcharts-series-group" data-z-index="3"><g class="highcharts-series highcharts-series-0 highcharts-pie-series" data-z-index="0.1" opacity="1" transform="translate(10,10) scale(1 1)"><path fill="#DABE82" d="M 302.967921470418 42.00000326676849 A 157.5 157.5 0 0 1 460.49929125053154 199.97249929125033 L 303 199.5 A 0 0 0 0 0 303 199.5 Z" transform="translate(0,0)" stroke="#ffffff" stroke-width="1" opacity="1" stroke-linejoin="round" class="highcharts-point highcharts-color-0"></path><path fill="#d7642d" d="M 460.49874000168 200.12999832000133 A 157.5 157.5 0 0 1 310.0530620084252 356.8419979417616 L 303 199.5 A 0 0 0 0 0 303 199.5 Z" transform="translate(0,0)" stroke="#ffffff" stroke-width="1" opacity="1" stroke-linejoin="round" class="highcharts-point highcharts-color-1"></path><path fill="#e6a532" d="M 309.8957165101764 356.8489723316021 A 157.5 157.5 0 0 1 160.54139650807 266.6699061420296 L 303 199.5 A 0 0 0 0 0 303 199.5 Z" transform="translate(0,0)" stroke="#ffffff" stroke-width="1" opacity="1" stroke-linejoin="round" class="highcharts-point highcharts-color-2"></path><path fill="#829bcd" d="M 160.4742978424188 266.5274139773305 A 157.5 157.5 0 0 1 181.97178775571393 98.71100337362196 L 303 199.5 A 0 0 0 0 0 303 199.5 Z" transform="translate(0,0)" stroke="#ffffff" stroke-width="1" opacity="1" stroke-linejoin="round" class="highcharts-point highcharts-color-3"></path><path fill="#466eb4" d="M 182.0726372496432 98.59002557604319 A 157.5 157.5 0 0 1 288.1558003758015 42.7010850244271 L 303 199.5 A 0 0 0 0 0 303 199.5 Z" transform="translate(0,0)" stroke="#ffffff" stroke-width="1" opacity="1" stroke-linejoin="round" class="highcharts-point highcharts-color-4"></path><path fill="#fae6c3" d="M 288.31260668674315 42.686319226727875 A 157.5 157.5 0 0 1 302.78123565975375 42.000151929713155 L 303 199.5 A 0 0 0 0 0 303 199.5 Z" transform="translate(0,0)" stroke="#ffffff" stroke-width="1" opacity="1" stroke-linejoin="round" class="highcharts-point highcharts-color-5"></path></g><g class="highcharts-markers highcharts-series-0 highcharts-pie-series" data-z-index="0.1" opacity="1" transform="translate(10,10) scale(1 1)"></g></g><text x="300" text-anchor="middle" class="highcharts-title" data-z-index="4" style="color:#333333;font-size:18px;fill:#333333;" y="24"></text><text x="300" text-anchor="middle" class="highcharts-subtitle" data-z-index="4" style="color:#666666;fill:#666666;" y="24"></text><text x="10" text-anchor="start" class="highcharts-caption" data-z-index="4" style="color:#666666;fill:#666666;" y="397"></text><g class="highcharts-data-labels highcharts-series-0 highcharts-pie-series" data-z-index="6" opacity="1" transform="translate(10,10) scale(1 1)"><path fill="none" class="highcharts-data-label-connector highcharts-color-0" stroke="#DABE82" stroke-width="1" d="M 440.83876137615135 67.17421462145057 C 435.83876137615135 67.17421462145057 423.0862402840408 79.87749001779132 418.83539992000397 84.1119151499049 L 414.58455955596713 88.34634028201849"></path><path fill="none" class="highcharts-data-label-connector highcharts-color-1" stroke="#d7642d" stroke-width="1" d="M 443.1846820130361 329.4282561609841 C 438.1846820130361 329.4282561609841 425.2069525397847 316.9551435695296 420.8810427153675 312.7974393723781 L 416.55513289095035 308.63973517522663"></path><path fill="none" class="highcharts-data-label-connector highcharts-color-2" stroke="#e6a532" stroke-width="1" d="M 200.9986223905907 359.9586636547768 C 205.9986223905907 359.9586636547768 215.310754641094 344.55463194391825 218.4147987245951 339.41995470696537 L 221.5188428080962 334.2852774700125"></path><path fill="none" class="highcharts-data-label-connector highcharts-color-3" stroke="#829bcd" stroke-width="1" d="M 112.03459730570756 175.56009605805286 C 117.03459730570756 175.56009605805286 134.88727596435965 177.85832683647976 140.838168850577 178.62440376262208 L 146.78906173679437 179.3904806887644"></path><path fill="none" class="highcharts-data-label-connector highcharts-color-4" stroke="#466eb4" stroke-width="1" d="M 206.2176487553299 36 C 211.2176487553299 36 224.082957680646 49.4921654327172 226.87648130257003 54.802177275806855 L 229.67000492449407 60.11218911889651"></path><path fill="none" class="highcharts-data-label-connector highcharts-color-5" stroke="#fae6c3" stroke-width="1" d="M 289.22306651989004 12 C 294.22306651989004 12 295.0656521339811 30.185806490002165 295.3465140053446 36.17922926911713 L 295.62737587670813 42.172652048232095"></path><g class="highcharts-label highcharts-data-label highcharts-data-label-color-0" data-z-index="1" transform="translate(446,57)"><text x="5" data-z-index="1" y="16" style="color:#000000;font-size:11px;font-weight:bold;fill:#000000;"><tspan x="5" y="16" class="highcharts-text-outline" fill="#FFFFFF" stroke="#FFFFFF" stroke-width="2px" stroke-linejoin="round" style="">Asia 25%</tspan><tspan x="5" y="16">Asia 25%</tspan></text></g><g class="highcharts-label highcharts-data-label highcharts-data-label-color-1" data-z-index="1" transform="translate(448,319)"><text x="5" data-z-index="1" y="16" style="color:#000000;font-size:11px;font-weight:bold;fill:#000000;"><tspan x="5" y="16" class="highcharts-text-outline" fill="#FFFFFF" stroke="#FFFFFF" stroke-width="2px" stroke-linejoin="round" style="">Africa 24%</tspan><tspan x="5" y="16">Africa 24%</tspan></text></g><g class="highcharts-label highcharts-data-label highcharts-data-label-color-2" data-z-index="1" transform="translate(84,350)"><text x="5" data-z-index="1" y="16" style="color:#000000;font-size:11px;font-weight:bold;fill:#000000;"><tspan x="5" y="16" class="highcharts-text-outline" fill="#FFFFFF" stroke="#FFFFFF" stroke-width="2px" stroke-linejoin="round" style="">Latin America 19%</tspan><tspan x="5" y="16">Latin America 19%</tspan></text></g><g class="highcharts-label highcharts-data-label highcharts-data-label-color-3" data-z-index="1" transform="translate(7,166)"><text x="5" data-z-index="1" y="16" style="color:#000000;font-size:11px;font-weight:bold;fill:#000000;"><tspan x="5" y="16" class="highcharts-text-outline" fill="#FFFFFF" stroke="#FFFFFF" stroke-width="2px" stroke-linejoin="round" style="">Middle East 18%</tspan><tspan x="5" y="16">Middle East 18%</tspan></text></g><g class="highcharts-label highcharts-data-label highcharts-data-label-color-4" data-z-index="1" transform="translate(126,26)"><text x="5" data-z-index="1" y="16" style="color:#000000;font-size:11px;font-weight:bold;fill:#000000;"><tspan x="5" y="16" class="highcharts-text-outline" fill="#FFFFFF" stroke="#FFFFFF" stroke-width="2px" stroke-linejoin="round" style="">Europe 12%</tspan><tspan x="5" y="16">Europe 12%</tspan></text></g><g class="highcharts-label highcharts-data-label highcharts-data-label-color-5" data-z-index="1" transform="translate(167,2)"><text x="5" data-z-index="1" y="16" style="color:#000000;font-size:11px;font-weight:bold;fill:#000000;"><tspan x="5" y="16" class="highcharts-text-outline" fill="#FFFFFF" stroke="#FFFFFF" stroke-width="2px" stroke-linejoin="round" style="">Other/unknown 2%</tspan><tspan x="5" y="16">Other/unknown 2%</tspan></text></g></g><g class="highcharts-legend" data-z-index="7"><rect fill="none" class="highcharts-legend-box" rx="0" ry="0" x="0" y="0" width="8" height="8" visibility="hidden"></rect><g data-z-index="1"><g></g></g></g><text x="590" class="highcharts-credits" text-anchor="end" data-z-index="8" style="cursor:pointer;color:#999999;font-size:9px;fill:#999999;" y="395">Highcharts.com</text></svg>